<svg width="150" height="150" viewBox="0 0 150 150" fill="none" xmlns="http://www.w3.org/2000/svg">
<g clip-path="url(#clip0_156_612)">
<path fill-rule="evenodd" clip-rule="evenodd" d="M97.4125 17.2311C99.7566 14.8877 102.935 13.5713 106.25 13.5713C109.565 13.5713 112.743 14.8877 115.088 17.2311L132.769 34.9124C135.112 37.2565 136.429 40.4353 136.429 43.7499C136.429 47.0644 135.112 50.2433 132.769 52.5874L115.088 70.2686C112.743 72.612 109.565 73.9285 106.25 73.9285C102.935 73.9285 99.7566 72.612 97.4125 70.2686L79.7313 52.5874C77.3879 50.2433 76.0714 47.0644 76.0714 43.7499C76.0714 40.4353 77.3879 37.2565 79.7313 34.9124L97.4125 17.2311ZM56.25 18.7499C59.5652 18.7499 62.7446 20.0668 65.0888 22.411C67.433 24.7552 68.75 27.9347 68.75 31.2499V56.2499C68.75 59.5651 67.433 62.7445 65.0888 65.0887C62.7446 67.4329 59.5652 68.7499 56.25 68.7499H31.25C27.9348 68.7499 24.7554 67.4329 22.4112 65.0887C20.067 62.7445 18.75 59.5651 18.75 56.2499V31.2499C18.75 27.9347 20.067 24.7552 22.4112 22.411C24.7554 20.0668 27.9348 18.7499 31.25 18.7499H56.25ZM131.25 93.7499C131.25 90.4347 129.933 87.2552 127.589 84.911C125.245 82.5668 122.065 81.2499 118.75 81.2499H93.75C90.4348 81.2499 87.2554 82.5668 84.9112 84.911C82.567 87.2552 81.25 90.4347 81.25 93.7499V118.75C81.25 122.065 82.567 125.245 84.9112 127.589C87.2554 129.933 90.4348 131.25 93.75 131.25H118.75C122.065 131.25 125.245 129.933 127.589 127.589C129.933 125.245 131.25 122.065 131.25 118.75V93.7499ZM56.25 81.2499C59.5652 81.2499 62.7446 82.5668 65.0888 84.911C67.433 87.2552 68.75 90.4347 68.75 93.7499V118.75C68.75 122.065 67.433 125.245 65.0888 127.589C62.7446 129.933 59.5652 131.25 56.25 131.25H31.25C27.9348 131.25 24.7554 129.933 22.4112 127.589C20.067 125.245 18.75 122.065 18.75 118.75V93.7499C18.75 90.4347 20.067 87.2552 22.4112 84.911C24.7554 82.5668 27.9348 81.2499 31.25 81.2499H56.25Z" fill="#E7772E"/>
</g>
<defs>
<clipPath id="clip0_156_612">
<rect width="150" height="150" fill="white"/>
</clipPath>
</defs>
</svg>
