<svg width="150" height="150" viewBox="0 0 150 150" fill="none" xmlns="http://www.w3.org/2000/svg">
<path d="M58.5938 127.5C58.7931 127.678 59.045 127.785 59.311 127.806C59.5771 127.828 59.8428 127.761 60.0677 127.618C60.2927 127.474 60.4646 127.261 60.5573 127.011C60.65 126.76 60.6585 126.487 60.5813 126.231L44.8313 72.2438C44.6885 71.7525 44.3988 71.3167 44.001 70.9949C43.6033 70.6732 43.1166 70.4808 42.6063 70.4438C40.0563 70.2563 37.5126 70.05 34.9688 69.8188L13.9063 67.9C13.6837 67.8784 13.4593 67.9175 13.2571 68.0132C13.0549 68.1089 12.8824 68.2577 12.758 68.4436C12.6336 68.6296 12.562 68.8458 12.5507 69.0692C12.5394 69.2926 12.5888 69.515 12.6938 69.7125C24.0876 91.025 40.4938 111.338 58.5938 127.5ZM74.0438 138.913C74.1688 139.35 74.5438 139.675 75.0001 139.675C75.2205 139.669 75.4329 139.591 75.6054 139.453C75.7778 139.316 75.901 139.126 75.9563 138.913L95.2313 72.8313C95.2887 72.6394 95.2991 72.4366 95.2617 72.2399C95.2243 72.0432 95.1402 71.8583 95.0164 71.7009C94.8927 71.5434 94.733 71.418 94.5507 71.3352C94.3683 71.2524 94.1688 71.2146 93.9688 71.225C81.3288 71.7674 68.6714 71.7674 56.0313 71.225C55.8321 71.215 55.6333 71.2528 55.4516 71.3352C55.27 71.4177 55.1107 71.5425 54.9871 71.6991C54.8635 71.8557 54.7792 72.0397 54.7412 72.2356C54.7032 72.4314 54.7127 72.6335 54.7688 72.825L74.0438 138.913ZM89.4188 126.231C89.0688 127.419 90.4813 128.325 91.4063 127.5C109.506 111.331 125.913 91.025 137.306 69.7125C137.411 69.5154 137.46 69.2938 137.449 69.0709C137.438 68.8481 137.367 68.6324 137.243 68.4467C137.12 68.261 136.948 68.1121 136.747 68.0159C136.546 67.9196 136.322 67.8796 136.1 67.9L115.038 69.8188C112.488 70.05 109.944 70.2563 107.394 70.4438C106.884 70.4808 106.397 70.6732 105.999 70.9949C105.601 71.3167 105.312 71.7525 105.169 72.2438L89.4188 126.231ZM136.256 58.475C136.474 58.4559 136.683 58.3799 136.863 58.2546C137.042 58.1293 137.185 57.9592 137.278 57.7612C137.371 57.5631 137.411 57.3442 137.393 57.1262C137.375 56.9081 137.3 56.6987 137.175 56.5188L116.938 27.175C116.075 25.9253 114.922 24.9038 113.578 24.1984C112.233 23.4929 110.737 23.1245 109.219 23.125H93.6563C93.4511 23.125 93.249 23.1755 93.0679 23.2722C92.8868 23.3688 92.7323 23.5085 92.618 23.679C92.5037 23.8495 92.4332 24.0455 92.4126 24.2498C92.392 24.454 92.4221 24.6601 92.5001 24.85L106.606 59.3688C106.807 59.857 107.157 60.2694 107.606 60.5467C108.055 60.824 108.58 60.952 109.106 60.9125C110.794 60.7813 112.494 60.6375 114.188 60.475L136.256 58.475ZM82.2813 24.6625C82.091 24.2063 81.7698 23.8168 81.3582 23.5431C80.9466 23.2695 80.4631 23.124 79.9688 23.125H70.0313C69.5371 23.124 69.0536 23.2695 68.642 23.5431C68.2304 23.8168 67.9091 24.2063 67.7188 24.6625L52.9813 60.025C52.905 60.2101 52.8743 60.4107 52.8917 60.6101C52.9091 60.8095 52.9741 61.0019 53.0813 61.1709C53.1884 61.3399 53.3347 61.4808 53.5076 61.5816C53.6806 61.6823 53.8752 61.7401 54.0751 61.75C68.0126 62.425 81.9876 62.425 95.9313 61.75C96.1307 61.7391 96.3246 61.6807 96.4967 61.5795C96.6689 61.4783 96.8143 61.3374 96.9208 61.1685C97.0273 60.9996 97.0917 60.8076 97.1088 60.6087C97.1259 60.4097 97.095 60.2096 97.0188 60.025L82.2813 24.6625ZM57.5001 24.85C57.5781 24.6601 57.6081 24.454 57.5876 24.2498C57.567 24.0455 57.4965 23.8495 57.3822 23.679C57.2679 23.5085 57.1134 23.3688 56.9323 23.2722C56.7512 23.1755 56.5491 23.125 56.3438 23.125H40.7813C39.263 23.1245 37.7672 23.4929 36.4226 24.1984C35.0781 24.9038 33.925 25.9253 33.0626 27.175L12.8251 56.5188C12.7006 56.6987 12.6256 56.9081 12.6075 57.1262C12.5893 57.3442 12.6287 57.5631 12.7217 57.7612C12.8147 57.9592 12.9581 58.1293 13.1374 58.2546C13.3168 58.3799 13.5259 58.4559 13.7438 58.475L35.8126 60.475C37.5063 60.6375 39.2001 60.7813 40.8938 60.9125C41.4203 60.953 41.9461 60.8253 42.3953 60.5479C42.8446 60.2705 43.1942 59.8576 43.3938 59.3688L57.5001 24.85Z" fill="#E7772E"/>
</svg>
