<svg width="128" height="128" viewBox="0 0 128 128" fill="none" xmlns="http://www.w3.org/2000/svg">
<path d="M50 108.8C50.1701 108.952 50.385 109.043 50.612 109.061C50.839 109.08 51.0658 109.023 51.2577 108.901C51.4497 108.778 51.5964 108.596 51.6755 108.383C51.7546 108.169 51.7618 107.935 51.696 107.717L38.256 61.6481C38.1341 61.2289 37.8869 60.857 37.5475 60.5824C37.2081 60.3078 36.7928 60.1437 36.3573 60.1121C34.1813 59.9521 32.0107 59.7761 29.84 59.5787L11.8667 57.9414C11.6767 57.9229 11.4852 57.9563 11.3126 58.038C11.1401 58.1197 10.9929 58.2466 10.8868 58.4053C10.7806 58.564 10.7195 58.7484 10.7098 58.9391C10.7002 59.1298 10.7424 59.3195 10.832 59.4881C20.5547 77.6747 34.5547 95.0081 50 108.8ZM63.184 118.539C63.2907 118.912 63.6107 119.189 64 119.189C64.1881 119.184 64.3694 119.117 64.5165 119C64.6637 118.883 64.7687 118.721 64.816 118.539L81.264 62.1494C81.3129 61.9857 81.3218 61.8126 81.2899 61.6447C81.258 61.4769 81.1862 61.3191 81.0806 61.1848C80.975 61.0505 80.8387 60.9435 80.6832 60.8728C80.5276 60.8021 80.3573 60.7699 80.1867 60.7787C69.4005 61.2416 58.5995 61.2416 47.8133 60.7787C47.6433 60.7702 47.4737 60.8024 47.3186 60.8728C47.1636 60.9432 47.0277 61.0496 46.9222 61.1833C46.8168 61.317 46.7448 61.4739 46.7124 61.6411C46.68 61.8082 46.6881 61.9807 46.736 62.1441L63.184 118.539ZM76.304 107.717C76.0053 108.731 77.2107 109.504 78 108.8C93.4453 95.0027 107.445 77.6747 117.168 59.4881C117.257 59.3199 117.299 59.1307 117.29 58.9406C117.281 58.7505 117.22 58.5664 117.114 58.4079C117.009 58.2494 116.863 58.1224 116.691 58.0403C116.519 57.9582 116.328 57.924 116.139 57.9414L98.1653 59.5787C95.9893 59.7761 93.8187 59.9521 91.6427 60.1121C91.2073 60.1437 90.7919 60.3078 90.4525 60.5824C90.1131 60.857 89.8659 61.2289 89.744 61.6481L76.304 107.717ZM116.272 49.8987C116.458 49.8824 116.636 49.8176 116.789 49.7107C116.943 49.6038 117.065 49.4586 117.144 49.2896C117.224 49.1206 117.257 48.9338 117.242 48.7477C117.226 48.5617 117.162 48.3829 117.056 48.2294L99.7867 23.1894C99.0507 22.123 98.0668 21.2513 96.9194 20.6493C95.7721 20.0473 94.4957 19.733 93.2 19.7334H79.92C79.7449 19.7334 79.5724 19.7765 79.4179 19.859C79.2633 19.9414 79.1315 20.0607 79.034 20.2062C78.9364 20.3517 78.8762 20.5189 78.8587 20.6932C78.8411 20.8675 78.8668 21.0434 78.9333 21.2054L90.9707 50.6614C91.1417 51.0781 91.4402 51.4299 91.8234 51.6665C92.2066 51.9032 92.6549 52.0125 93.104 51.9787C94.544 51.8667 95.9947 51.7441 97.44 51.6054L116.272 49.8987ZM70.2133 21.0454C70.0509 20.6561 69.7768 20.3237 69.4256 20.0902C69.0744 19.8567 68.6618 19.7325 68.24 19.7334H59.76C59.3382 19.7325 58.9256 19.8567 58.5744 20.0902C58.2232 20.3237 57.9491 20.6561 57.7867 21.0454L45.2107 51.2214C45.1456 51.3793 45.1193 51.5505 45.1341 51.7207C45.149 51.8909 45.2045 52.055 45.2959 52.1992C45.3874 52.3435 45.5122 52.4637 45.6598 52.5497C45.8073 52.6357 45.9734 52.6849 46.144 52.6934C58.0373 53.2694 69.9627 53.2694 81.8613 52.6934C82.0315 52.6841 82.1969 52.6342 82.3438 52.5479C82.4907 52.4616 82.6148 52.3413 82.7057 52.1972C82.7965 52.053 82.8515 51.8892 82.8661 51.7195C82.8807 51.5497 82.8543 51.3789 82.7893 51.2214L70.2133 21.0454ZM49.0667 21.2054C49.1332 21.0434 49.1589 20.8675 49.1413 20.6932C49.1238 20.5189 49.0636 20.3517 48.966 20.2062C48.8685 20.0607 48.7367 19.9414 48.5821 19.859C48.4276 19.7765 48.2552 19.7334 48.08 19.7334H34.8C33.5043 19.733 32.2279 20.0473 31.0806 20.6493C29.9332 21.2513 28.9493 22.123 28.2133 23.1894L10.944 48.2294C10.8378 48.3829 10.7738 48.5617 10.7583 48.7477C10.7428 48.9338 10.7764 49.1206 10.8558 49.2896C10.9352 49.4586 11.0575 49.6038 11.2105 49.7107C11.3636 49.8176 11.542 49.8824 11.728 49.8987L30.56 51.6054C32.0053 51.7441 33.4507 51.8667 34.896 51.9787C35.3453 52.0133 35.7939 51.9044 36.1773 51.6676C36.5607 51.4309 36.859 51.0786 37.0293 50.6614L49.0667 21.2054Z" fill="#E72E2E"/>
</svg>
