<svg width="50" height="50" viewBox="0 0 50 50" fill="none" xmlns="http://www.w3.org/2000/svg">
<path d="M46.4952 11H3.52118C2.13918 11 1.00818 12.257 1.00818 13.5C1.00818 14.743 2.13918 15.999 3.52118 15.999H4.12818V20.999H45.9492V15.999H46.4952C47.8782 15.999 49.0082 14.743 49.0082 13.5C49.0082 12.257 47.8782 11 46.4952 11ZM25.0082 18.52C24.3142 18.52 23.7522 17.941 23.7522 17.228C23.7522 16.515 24.3142 15.936 25.0082 15.936C25.7032 15.936 26.2642 16.515 26.2642 17.228C26.2642 17.941 25.7032 18.52 25.0082 18.52ZM4.12818 30.998H45.9492V23H4.12818V30.998ZM25.0082 25.624C25.7032 25.624 26.2642 26.202 26.2642 26.915C26.2642 27.629 25.7032 28.207 25.0082 28.207C24.3142 28.207 23.7522 27.629 23.7522 26.915C23.7512 26.202 24.3142 25.624 25.0082 25.624ZM4.12818 37.895V43.709C4.12818 44.419 4.21718 45.001 4.90818 45.001H9.93218C10.6232 45.001 10.9362 44.419 10.9362 43.709V39.999H39.1412V43.709C39.1412 44.419 39.3932 45.001 40.0832 45.001H45.1082C45.7972 45.001 45.9482 44.419 45.9482 43.709V33H4.12818V37.895ZM25.0082 35.312C25.7032 35.312 26.2642 35.891 26.2642 36.603C26.2642 37.318 25.7032 37.894 25.0082 37.894C24.3142 37.894 23.7522 37.318 23.7522 36.603C23.7512 35.892 24.3142 35.312 25.0082 35.312Z" fill="#E72E2E"/>
</svg>
