<svg width="150" height="150" viewBox="0 0 150 150" fill="none" xmlns="http://www.w3.org/2000/svg">
<path d="M75 140.625C62.0206 140.625 49.3327 136.776 38.5407 129.565C27.7488 122.354 19.3374 112.105 14.3704 100.114C9.40343 88.1222 8.10384 74.9272 10.636 62.1972C13.1682 49.4672 19.4183 37.774 28.5961 28.5961C37.774 19.4183 49.4672 13.1682 62.1972 10.636C74.9272 8.10384 88.1222 9.40343 100.114 14.3704C112.105 19.3374 122.354 27.7488 129.565 38.5407C136.776 49.3327 140.625 62.0206 140.625 75C140.625 92.4049 133.711 109.097 121.404 121.404C109.097 133.711 92.4049 140.625 75 140.625ZM75 14.9063C63.1146 14.9063 51.4961 18.4307 41.6137 25.0339C31.7314 31.6371 24.029 41.0224 19.4806 52.0031C14.9323 62.9838 13.7422 75.0667 16.061 86.7237C18.3797 98.3808 24.1031 109.088 32.5073 117.493C40.9116 125.897 51.6193 131.62 63.2763 133.939C74.9334 136.258 87.0162 135.068 97.9969 130.519C108.978 125.971 118.363 118.269 124.966 108.386C131.569 98.504 135.094 86.8855 135.094 75C135.094 67.1084 133.539 59.2941 130.519 52.0031C127.499 44.7122 123.073 38.0876 117.493 32.5073C111.913 26.9271 105.288 22.5006 97.9969 19.4806C90.706 16.4607 82.8917 14.9063 75 14.9063Z" fill="#E7772E"/>
<path d="M13.0312 72.2344H136.922V77.7656H13.0312V72.2344ZM76.5 49.0781C57.6645 49.17 38.9023 46.7261 20.7188 41.8125L22.3125 36.5156C22.8281 36.5156 75.1875 52.0781 127.453 36.5156L129 41.8125C111.941 46.7478 94.2584 49.1949 76.5 49.0781ZM22.4531 112.078L20.8594 106.781C74.7656 90.75 126.937 106.125 129.141 106.781L127.547 112.078C127.031 111.891 74.7188 96.5156 22.4531 112.078Z" fill="#E7772E"/>
<path d="M53.7655 134.812C37.5629 96.4914 36.3251 53.4864 50.2968 14.2969L55.3593 16.4531C41.9492 54.2593 43.1868 95.7173 58.828 132.656L53.7655 134.812ZM95.8124 134.812L90.7499 132.656C106.379 95.731 107.617 54.2921 94.2187 16.5L99.2812 14.3437C113.236 53.52 111.998 96.5042 95.8124 134.812ZM72.2343 13.0312H77.7655V139.219H72.2343V13.0312Z" fill="#E7772E"/>
</svg>
