<svg width="128" height="128" viewBox="0 0 128 128" fill="none" xmlns="http://www.w3.org/2000/svg">
<path d="M64 120C52.9242 120 42.0972 116.716 32.8881 110.562C23.6789 104.409 16.5012 95.663 12.2627 85.4303C8.02423 75.1976 6.91525 63.9379 9.07602 53.075C11.2368 42.212 16.5703 32.2338 24.402 24.402C32.2338 16.5703 42.212 11.2368 53.0749 9.07605C63.9379 6.91528 75.1976 8.02426 85.4303 12.2628C95.6629 16.5013 104.409 23.6789 110.562 32.8881C116.716 42.0972 120 52.9243 120 64C120 78.8521 114.1 93.096 103.598 103.598C93.0959 114.1 78.8521 120 64 120ZM64 12.72C53.8578 12.72 43.9433 15.7275 35.5104 21.3623C27.0774 26.997 20.5047 35.0058 16.6235 44.376C12.7422 53.7462 11.7267 64.0569 13.7053 74.0043C15.684 83.9516 20.5679 93.0888 27.7396 100.26C34.9112 107.432 44.0484 112.316 53.9958 114.295C63.9431 116.273 74.2538 115.258 83.624 111.377C92.9942 107.495 101.003 100.923 106.638 92.4897C112.272 84.0567 115.28 74.1423 115.28 64C115.28 57.2658 113.954 50.5976 111.377 44.376C108.799 38.1544 105.022 32.5014 100.26 27.7396C95.4986 22.9778 89.8456 19.2005 83.624 16.6235C77.4024 14.0464 70.7342 12.72 64 12.72Z" fill="#E72E2E"/>
<path d="M11.12 61.6402H116.84V66.3602H11.12V61.6402ZM65.28 41.8802C49.207 41.9585 33.1966 39.8731 17.68 35.6802L19.04 31.1602C19.48 31.1602 64.16 44.4402 108.76 31.1602L110.08 35.6802C95.5228 39.8916 80.4339 41.9798 65.28 41.8802ZM19.16 95.6402L17.8 91.1202C63.8 77.4402 108.32 90.5602 110.2 91.1202L108.84 95.6402C108.4 95.4801 63.76 82.3602 19.16 95.6402Z" fill="#E72E2E"/>
<path d="M45.88 115.04C32.0537 82.3395 30.9975 45.6419 42.92 12.2001L47.24 14.0401C35.7967 46.3014 36.8528 81.6789 50.2 113.2L45.88 115.04ZM81.76 115.04L77.44 113.2C90.7769 81.6906 91.8329 46.3294 80.4 14.0801L84.72 12.2401C96.6282 45.6705 95.5721 82.3503 81.76 115.04ZM61.64 11.1201H66.36V118.8H61.64V11.1201Z" fill="#E72E2E"/>
</svg>
