<svg width="50" height="50" viewBox="0 0 50 50" fill="none" xmlns="http://www.w3.org/2000/svg">
<path d="M28.97 33.8067V28.3334C28.97 27.8913 28.7945 27.4674 28.4819 27.1549C28.1693 26.8423 27.7454 26.6667 27.3034 26.6667H23.97C23.528 26.6667 23.1041 26.8423 22.7915 27.1549C22.479 27.4674 22.3034 27.8913 22.3034 28.3334V33.8034C19.7703 34.4512 17.4843 35.8313 15.7312 37.7711C13.9781 39.711 12.8357 42.1245 12.4467 44.71C12.4087 44.951 12.4233 45.1974 12.4895 45.4322C12.5558 45.667 12.6721 45.8847 12.8304 46.0703C12.9888 46.2559 13.1855 46.405 13.4069 46.5074C13.6284 46.6098 13.8694 46.663 14.1134 46.6634H37.1867C37.4307 46.663 37.6717 46.6098 37.8931 46.5074C38.1146 46.405 38.3113 46.2559 38.4696 46.0703C38.628 45.8847 38.7443 45.667 38.8105 45.4322C38.8768 45.1974 38.8914 44.951 38.8534 44.71C38.4619 42.1217 37.3152 39.7065 35.5571 37.7669C33.799 35.8274 31.5076 34.4498 28.97 33.8067ZM44.4334 20.93L36.1 4.26337C35.9629 3.98502 35.7507 3.75048 35.4875 3.58617C35.2242 3.42186 34.9204 3.33431 34.61 3.33337H16.6634C16.3547 3.334 16.0522 3.42035 15.7897 3.58279C15.5272 3.74524 15.315 3.97739 15.1767 4.25337L6.84337 20.92C6.71642 21.1734 6.65615 21.4549 6.66827 21.738C6.68039 22.0211 6.7645 22.2965 6.91264 22.538C7.06078 22.7796 7.26807 22.9794 7.51491 23.1186C7.76176 23.2577 8.04001 23.3317 8.32337 23.3334H35.6367V28.3334C35.6367 28.7754 35.8123 29.1993 36.1249 29.5119C36.4374 29.8244 36.8613 30 37.3034 30C37.7454 30 38.1693 29.8244 38.4819 29.5119C38.7944 29.1993 38.97 28.7754 38.97 28.3334V23.3334H42.95C43.2323 23.3314 43.5095 23.2578 43.7555 23.1194C44.0015 22.981 44.2084 22.7823 44.3567 22.5421C44.5049 22.3019 44.5897 22.028 44.6032 21.746C44.6166 21.464 44.5582 21.1833 44.4334 20.93Z" fill="#E72E2E"/>
</svg>
