<svg width="128" height="128" viewBox="0 0 128 128" fill="none" xmlns="http://www.w3.org/2000/svg">
<g clip-path="url(#clip0_555_3045)">
<path d="M64.0008 -0.000924021C57.1924 -0.320246 50.3924 0.785516 44.0359 3.24558C37.6795 5.70565 31.9067 9.46581 27.0871 14.2854C22.2676 19.1049 18.5074 24.8777 16.0473 31.2342C13.5873 37.5906 12.4815 44.3907 12.8008 51.1991C12.8008 67.3271 25.6008 83.1991 32.0008 89.5991C38.4008 95.9991 64.0008 127.999 64.0008 127.999C64.0008 127.999 89.6008 95.9991 96.0008 89.5991C102.401 83.1991 115.201 67.3271 115.201 51.1991C115.52 44.3907 114.414 37.5906 111.954 31.2342C109.494 24.8777 105.734 19.1049 100.915 14.2854C96.095 9.46581 90.3222 5.70565 83.9658 3.24558C77.6093 0.785516 70.8092 -0.320246 64.0008 -0.000924021ZM64.0008 71.9991C59.887 71.9991 55.8655 70.7792 52.445 68.4937C49.0244 66.2081 46.3584 62.9596 44.7841 59.1589C43.2098 55.3582 42.7979 51.176 43.6005 47.1412C44.4031 43.1064 46.3841 39.4002 49.293 36.4913C52.2019 33.5823 55.9082 31.6013 59.943 30.7988C63.9778 29.9962 68.16 30.4081 71.9607 31.9824C75.7614 33.5567 79.0099 36.2227 81.2954 39.6432C83.5809 43.0638 84.8008 47.0852 84.8008 51.1991C84.8008 53.9306 84.2628 56.6353 83.2175 59.1589C82.1722 61.6825 80.6401 63.9755 78.7087 65.9069C76.7772 67.8384 74.4842 69.3705 71.9607 70.4158C69.4371 71.4611 66.7323 71.9991 64.0008 71.9991Z" fill="#E72E2E"/>
</g>
<defs>
<clipPath id="clip0_555_3045">
<rect width="128" height="128" fill="white" transform="translate(0.000976562)"/>
</clipPath>
</defs>
</svg>
