<svg width="150" height="150" viewBox="0 0 150 150" fill="none" xmlns="http://www.w3.org/2000/svg">
<g clip-path="url(#clip0_156_604)">
<path d="M75 1.57952e-05C67.0214 -0.37419 59.0526 0.921626 51.6036 3.80451C44.1547 6.6874 37.3897 11.0938 31.7418 16.7418C26.0938 22.3897 21.6874 29.1547 18.8045 36.6036C15.9216 44.0526 14.6258 52.0214 15 60C15 78.9 30 97.5001 37.5 105C45 112.5 75 150 75 150C75 150 105 112.5 112.5 105C120 97.5001 135 78.9 135 60C135.374 52.0214 134.078 44.0526 131.196 36.6036C128.313 29.1547 123.906 22.3897 118.258 16.7418C112.61 11.0938 105.845 6.6874 98.3964 3.80451C90.9475 0.921626 82.9786 -0.37419 75 1.57952e-05ZM75 84.375C70.1791 84.375 65.4664 82.9455 61.458 80.2671C57.4495 77.5888 54.3253 73.7819 52.4805 69.3279C50.6356 64.874 50.1529 59.973 51.0934 55.2447C52.0339 50.5164 54.3554 46.1732 57.7643 42.7643C61.1732 39.3554 65.5164 37.0339 70.2447 36.0934C74.973 35.1529 79.874 35.6356 84.3279 37.4805C88.7819 39.3254 92.5887 42.4496 95.2671 46.458C97.9455 50.4665 99.375 55.1791 99.375 60C99.375 63.201 98.7445 66.3706 97.5196 69.3279C96.2946 72.2853 94.4992 74.9723 92.2357 77.2358C89.9723 79.4992 87.2852 81.2946 84.3279 82.5196C81.3706 83.7446 78.201 84.375 75 84.375Z" fill="#E7782E"/>
</g>
<defs>
<clipPath id="clip0_156_604">
<rect width="150" height="150" fill="white"/>
</clipPath>
</defs>
</svg>
