<svg width="26" height="25" viewBox="0 0 26 25" fill="none" xmlns="http://www.w3.org/2000/svg">
<path d="M1.17741 21.8235C0.562721 22.3789 0.512931 23.329 1.0662 23.9455C1.61947 24.5621 2.56629 24.6118 3.18099 24.0564L1.17741 21.8235ZM25.8923 2.94439C25.9357 2.11569 25.3014 1.4088 24.4756 1.36552L11.0172 0.660198C10.1913 0.616916 9.48658 1.25363 9.44315 2.08234C9.39972 2.91104 10.034 3.61793 10.8599 3.66121L22.8229 4.28816L22.1938 16.2922C22.1504 17.1209 22.7847 17.8278 23.6106 17.8711C24.4364 17.9144 25.1411 17.2777 25.1846 16.449L25.8923 2.94439ZM3.18099 24.0564L25.3987 3.98246L23.3951 1.74959L1.17741 21.8235L3.18099 24.0564Z" fill="white"/>
</svg>
