<svg width="18" height="19" viewBox="0 0 18 19" fill="none" xmlns="http://www.w3.org/2000/svg">
<path fill-rule="evenodd" clip-rule="evenodd" d="M2.62756 4.25C2.42865 4.25 2.23789 4.32902 2.09723 4.46967C1.95658 4.61032 1.87756 4.80109 1.87756 5C1.87756 5.19891 1.95658 5.38968 2.09723 5.53033C2.23789 5.67098 2.42865 5.75 2.62756 5.75H15.3776C15.5765 5.75 15.7672 5.67098 15.9079 5.53033C16.0485 5.38968 16.1276 5.19891 16.1276 5C16.1276 4.80109 16.0485 4.61032 15.9079 4.46967C15.7672 4.32902 15.5765 4.25 15.3776 4.25H2.62756ZM1.87756 9.5C1.87756 9.30109 1.95658 9.11032 2.09723 8.96967C2.23789 8.82902 2.42865 8.75 2.62756 8.75H15.3776C15.5765 8.75 15.7672 8.82902 15.9079 8.96967C16.0485 9.11032 16.1276 9.30109 16.1276 9.5C16.1276 9.69891 16.0485 9.88968 15.9079 10.0303C15.7672 10.171 15.5765 10.25 15.3776 10.25H2.62756C2.42865 10.25 2.23789 10.171 2.09723 10.0303C1.95658 9.88968 1.87756 9.69891 1.87756 9.5ZM1.87756 14.0007C1.87756 13.8018 1.95658 13.6111 2.09723 13.4704C2.23789 13.3298 2.42865 13.2507 2.62756 13.2507H15.3776C15.5765 13.2507 15.7672 13.3298 15.9079 13.4704C16.0485 13.6111 16.1276 13.8018 16.1276 14.0007C16.1276 14.1997 16.0485 14.3904 15.9079 14.5311C15.7672 14.6717 15.5765 14.7507 15.3776 14.7507H2.62756C2.42865 14.7507 2.23789 14.6717 2.09723 14.5311C1.95658 14.3904 1.87756 14.1997 1.87756 14.0007Z" fill="black"/>
</svg>
