<svg width="19" height="19" viewBox="0 0 19 19" fill="none" xmlns="http://www.w3.org/2000/svg">
<path fill-rule="evenodd" clip-rule="evenodd" d="M2.62744 4.25012C2.42853 4.25012 2.23776 4.32914 2.09711 4.46979C1.95646 4.61044 1.87744 4.80121 1.87744 5.00012C1.87744 5.19903 1.95646 5.3898 2.09711 5.53045C2.23776 5.6711 2.42853 5.75012 2.62744 5.75012H15.3774C15.5764 5.75012 15.7671 5.6711 15.9078 5.53045C16.0484 5.3898 16.1274 5.19903 16.1274 5.00012C16.1274 4.80121 16.0484 4.61044 15.9078 4.46979C15.7671 4.32914 15.5764 4.25012 15.3774 4.25012H2.62744ZM1.87744 9.50012C1.87744 9.30121 1.95646 9.11044 2.09711 8.96979C2.23776 8.82914 2.42853 8.75012 2.62744 8.75012H15.3774C15.5764 8.75012 15.7671 8.82914 15.9078 8.96979C16.0484 9.11044 16.1274 9.30121 16.1274 9.50012C16.1274 9.69903 16.0484 9.8898 15.9078 10.0305C15.7671 10.1711 15.5764 10.2501 15.3774 10.2501H2.62744C2.42853 10.2501 2.23776 10.1711 2.09711 10.0305C1.95646 9.8898 1.87744 9.69903 1.87744 9.50012ZM1.87744 14.0009C1.87744 13.802 1.95646 13.6112 2.09711 13.4705C2.23776 13.3299 2.42853 13.2509 2.62744 13.2509H15.3774C15.5764 13.2509 15.7671 13.3299 15.9078 13.4705C16.0484 13.6112 16.1274 13.802 16.1274 14.0009C16.1274 14.1998 16.0484 14.3905 15.9078 14.5312C15.7671 14.6719 15.5764 14.7509 15.3774 14.7509H2.62744C2.42853 14.7509 2.23776 14.6719 2.09711 14.5312C1.95646 14.3905 1.87744 14.1998 1.87744 14.0009Z" fill="white"/>
</svg>
